

<svg xmlns="http://www.w3.org/2000/svg" xmlns:xlink="http://www.w3.org/1999/xlink" version="1.1" x="0px" y="0px" viewBox="90 90 537 537" xml:space="preserve" width="200px" height="200px">
<style type="text/css">
	.st0{fill:#e5e5e5;}
	.st1{opacity:0.2;fill:black;}
	.st2{fill:#0D2560;}
	.st3{fill:#00E5FF;}
	.st4{fill:#64FFC7;}
</style>

<g id="Body">
	<g>
		<path class="st0" d="M405,480.1v92.5c0,8.9,10.4,13.7,17.1,7.9l117.1-100.4H405z"/>
		<polygon class="st1" points="405,480.1 405,516.3 539.2,480.1   "/>
		<path class="st0" d="M539.2,481.1H212.3c-30.8,0-56-25.2-56-56v-156c0-30.8,25.2-56,56-56h270.9c30.8,0,56,25.2,56,56V481.1z"/>
		<path class="st0" d="M405.3,219.5h-115l2.9-6.6c4.2-9.6,13.7-15.7,24.1-15.7h60.9c10.4,0,19.9,6.2,24.1,15.7L405.3,219.5z"/>
		<path class="st2" d="M452.9,352.7H242.6c-27.8,0-50.6-22.8-50.6-50.6v0c0-27.8,22.8-50.6,50.6-50.6h210.3    c27.8,0,50.6,22.8,50.6,50.6v0C503.5,329.9,480.7,352.7,452.9,352.7z"/>
		<rect x="343" y="151.4" class="st0" width="9.6" height="64.4"/>
		<circle class="st0" cx="347.8" cy="134.6" r="22.5"/>
		<path class="st1" d="M352.5,156.6v9.6c-1.5,0.3-3.1,0.5-4.8,0.5c-1.6,0-3.3-0.2-4.8-0.5v-9.6c1.5,0.3,3.1,0.5,4.8,0.5    C349.4,157.1,351,157,352.5,156.6z"/>
		<path id="XMLID_42_" class="st2" d="M349.4,430.5c-23.1,0-43.6-20-46.9-44.4c-0.5-3.7,2.4-7,6.1-7h0c3,0,5.6,2.2,6,5.2    c2.5,18.3,18,33.9,34.8,33.9c16.8,0,32.3-15.6,34.8-33.9c0.4-3,3-5.2,6-5.2h0c3.7,0,6.6,3.3,6.1,7    C393,410.4,372.5,430.5,349.4,430.5z"/>
	</g>
</g>
<g id="Eye_3">
	<path class="st3" d="M466.2,334.6H230c-4.1,0-7.4-3.3-7.4-7.4v0c0-4.1,3.3-7.4,7.4-7.4h236.1c4.1,0,7.4,3.3,7.4,7.4v0   C473.5,331.2,470.2,334.6,466.2,334.6z"/>
</g>
<g id="Eye_2">
	<path class="st4" d="M479,310H217.2c-4.1,0-7.4-3.3-7.4-7.4v0c0-4.1,3.3-7.4,7.4-7.4H479c4.1,0,7.4,3.3,7.4,7.4v0   C486.3,306.6,483,310,479,310z"/>
</g>
<g id="Eye_1">
	<path class="st0" d="M466.2,285.3H230c-4.1,0-7.4-3.3-7.4-7.4l0,0c0-4.1,3.3-7.4,7.4-7.4h236.1c4.1,0,7.4,3.3,7.4,7.4l0,0   C473.5,282,470.2,285.3,466.2,285.3z"/>
</g>
</svg>
